<?xml version="1.0" encoding="iso-8859-1"?>
<!-- Generator: Adobe Illustrator 19.0.0, SVG Export Plug-In . SVG Version: 6.00 Build 0)  -->
<svg version="1.1" xmlns="http://www.w3.org/2000/svg" xmlns:xlink="http://www.w3.org/1999/xlink" width="512" height="512">

<defs>
  <style>
    g.section:target {
      display: inline;
    }

    g.section:not(:target) {
        display: none;
    }
    
  </style>
</defs>

    <g class="section" id="double-arrow" transform="scale(2)">
			<path stroke="#444444" fill="#444444" d="M217.774,121.224l-95.252,84.224l-95.22-84.224c-6.229-6.229-16.368-6.229-22.597,0
				s-6.229,16.368,0,22.566l106.312,94.044c3.178,3.21,7.342,4.704,11.505,4.64c4.164,0.095,8.327-1.398,11.505-4.545
				l106.344-94.044c6.198-6.229,6.198-16.4,0-22.597C234.11,115.027,223.971,114.995,217.774,121.224z"/>
			<path  stroke="#444444" fill="#444444"  d="M110.984,123.894c3.178,3.178,7.342,4.704,11.505,4.64c4.164,0.064,8.359-1.462,11.505-4.64
				L240.307,29.85c6.325-6.229,6.325-16.336,0.064-22.597c-6.229-6.229-16.4-6.229-22.597,0l-95.252,84.224L27.301,7.252
				c-6.261-6.229-16.4-6.229-22.629,0s-6.229,16.368,0,22.597L110.984,123.894z"/>
	</g>
    
    
    <g class="section"  id="icon">

    <g>
<!-- outline -->
<circle style="fill:#ffffff;" cx="256.003" cy="256.003" r="256"/>

</g>
     
<g transform="scale(0.9) translate(30 30)">     
     <circle style="fill:#CCCCCC;" cx="256.003" cy="256.003" r="248"/>
<g>
	<circle style="fill:#666666;" cx="288.003" cy="64.001" r="23.998"/>
	<circle style="fill:#666666;" cx="175.997" cy="256.003" r="16"/>
	<circle style="fill:#666666;" cx="64.001" cy="376.001" r="16"/>
	<circle style="fill:#666666;" cx="335.998" cy="175.997" r="16"/>
	<circle style="fill:#666666;" cx="200.005" cy="440.002" r="23.998"/>
	<circle style="fill:#666666;" cx="79.996" cy="183.999" r="56"/>
	<path style="fill:#666666;" d="M255.999,8.001c136.966,0,248,111.033,248,248s-111.034,248-248,248
		C255.999,504,435.668,195.435,255.999,8.001"/>
</g>
<g>
	<path style="fill:#1D1D1B;" d="M288,95.635c-17.443,0-31.635-14.191-31.635-31.635S270.556,32.367,288,32.367
		c17.443,0,31.634,14.191,31.634,31.634C319.634,81.444,305.443,95.635,288,95.635z M288,47.635
		c-9.024,0-16.366,7.341-16.366,16.365S278.976,80.366,288,80.366S304.366,73.023,304.366,64
		C304.366,54.977,297.024,47.635,288,47.635z"/>
	<path style="fill:#1D1D1B;" d="M176,279.634c-13.031,0-23.634-10.603-23.634-23.635s10.603-23.635,23.634-23.635
		c13.033,0,23.635,10.603,23.635,23.635C199.635,269.032,189.032,279.634,176,279.634z M176,247.634
		c-4.613,0-8.365,3.753-8.365,8.365c0,4.612,3.752,8.365,8.365,8.365s8.365-3.753,8.365-8.365
		C184.365,251.387,180.613,247.634,176,247.634z"/>
	<path style="fill:#1D1D1B;" d="M200,471.634c-17.443,0-31.635-14.191-31.635-31.635c0-17.443,14.191-31.635,31.635-31.635
		s31.634,14.191,31.634,31.635C231.634,457.443,217.443,471.634,200,471.634z M200,423.635c-9.024,0-16.366,7.341-16.366,16.366
		c0,9.025,7.342,16.366,16.366,16.366c9.024,0,16.365-7.341,16.365-16.366C216.365,430.976,209.023,423.635,200,423.635z"/>
	<path style="fill:#1D1D1B;" d="M368.001,423.635c-26.266,0-47.635-21.369-47.635-47.635c0-26.266,21.369-47.634,47.635-47.634
		c26.265,0,47.634,21.369,47.634,47.634C415.634,402.265,394.266,423.635,368.001,423.635z M368.001,343.635
		c-17.847,0-32.367,14.519-32.367,32.365c0,17.847,14.521,32.366,32.367,32.366s32.365-14.519,32.365-32.366
		C400.365,358.154,385.847,343.635,368.001,343.635z"/>
	<path style="fill:#1D1D1B;" d="M336,199.635c-13.033,0-23.635-10.603-23.635-23.635c0-13.031,10.603-23.634,23.635-23.634
		c13.033,0,23.634,10.603,23.634,23.634C359.633,189.032,349.032,199.635,336,199.635z M336,167.634
		c-4.613,0-8.366,3.752-8.366,8.365s3.754,8.365,8.366,8.365c4.612,0,8.365-3.753,8.365-8.365S340.612,167.634,336,167.634z"/>
	<path style="fill:#1D1D1B;" d="M437.019,74.981C388.667,26.629,324.38,0,255.999,0S123.332,26.629,74.98,74.981S0,187.62,0,256
		S26.629,388.668,74.98,437.02S187.619,512,255.999,512c44.898,0,89.071-11.791,127.743-34.101
		c37.511-21.64,69.172-52.678,91.562-89.761C499.31,348.379,512,302.687,512,256.001C512,187.62,485.37,123.333,437.019,74.981z
		 M464.365,152c0,17.847-14.519,32.366-32.366,32.366c-17.847,0-32.366-14.519-32.366-32.366c0-17.846,14.519-32.365,32.366-32.365
		C449.846,119.635,464.365,134.154,464.365,152z M80,135.635c26.669,0,48.366,21.697,48.366,48.366
		c0,26.668-21.697,48.365-48.366,48.365c-26.668,0-48.365-21.697-48.365-48.365C31.635,157.331,53.331,135.635,80,135.635z
		 M55.634,376c0-4.613,3.752-8.365,8.365-8.365c4.613,0,8.365,3.752,8.365,8.365s-3.753,8.365-8.365,8.365
		S55.634,380.613,55.634,376z M461.608,379.867c-20.996,34.775-50.687,63.881-85.86,84.172C339.504,484.948,298.096,496,255.999,496
		c-64.106,0-124.375-24.965-169.706-70.294c-8.222-8.222-15.764-16.941-22.618-26.08c0.108,0.001,0.216,0.008,0.324,0.008
		c13.032,0,23.635-10.603,23.635-23.635c0-13.031-10.603-23.634-23.635-23.634c-9.465,0-17.643,5.595-21.413,13.648
		C25.216,332.409,16,294.916,16,255.999c0-16.482,1.663-32.708,4.885-48.493c9.372,23.483,32.329,40.128,59.115,40.128
		c35.088,0,63.635-28.546,63.635-63.634S115.088,120.365,80,120.365c-9.14,0-17.827,1.952-25.69,5.436
		c9.142-14.098,19.822-27.346,31.985-39.508c45.33-45.33,105.599-70.294,169.706-70.294s124.375,24.965,169.705,70.294
		c6.192,6.193,11.99,12.673,17.411,19.395c-3.569-0.857-7.288-1.323-11.116-1.323c-26.266,0-47.635,21.369-47.635,47.634
		s21.369,47.635,47.635,47.635c21.967,0,40.499-14.951,45.979-35.209C489.8,193.084,496,224.065,496,256
		C496,299.771,484.106,342.605,461.608,379.867z"/>
	<rect x="31.999" y="264.37" style="fill:#1D1D1B;" width="16" height="15.269"/>
</g>
<rect x="192.002" y="143.996" style="fill:#FFFFFF;" width="16" height="15.999"/>
<rect x="359.996" y="80.36" style="fill:#1D1D1B;" width="15.999" height="15.269"/>
<rect x="256.003" y="216" style="fill:#FFFFFF;" width="15.999" height="15.999"/>
<g>
	<rect x="359.996" y="256.367" style="fill:#1D1D1B;" width="15.999" height="15.269"/>
	<rect x="448.005" y="224.367" style="fill:#1D1D1B;" width="16" height="15.269"/>
	<rect x="448.005" y="320.368" style="fill:#1D1D1B;" width="16" height="15.269"/>
</g>
<g>
	<rect x="263.995" y="295.995" style="fill:#FFFFFF;" width="15.999" height="15.999"/>
	<rect x="168.004" y="327.995" style="fill:#FFFFFF;" width="16" height="15.999"/>
	<rect x="248" y="399.999" style="fill:#FFFFFF;" width="16" height="15.999"/>
</g>
<rect x="303.998" y="448.369" style="fill:#1D1D1B;" width="15.999" height="15.269"/>
<g>
	<rect x="104.004" y="376.001" style="fill:#FFFFFF;" width="16" height="15.999"/>
	<rect x="128.001" y="87.998" style="fill:#FFFFFF;" width="16" height="15.999"/>
	<rect x="207.997" y="40.003" style="fill:#FFFFFF;" width="15.999" height="15.999"/>
</g>

<g>
    <text x="-10" y="400" font-size="400px" font-family="Arial" font-weight="bold" stroke="#ffffff" stroke-width="20">AE</text>
</g>

</g>
    </g>
    <!-- -->
    
    <g class="section" id="sun">
<path style="fill:#000000;" d="M255.985,512c-2.488,0-5.01-0.634-7.321-1.967c-7.017-4.051-9.421-13.023-5.369-20.04l50.339-87.19
	c3.32-5.751,10.09-8.551,16.501-6.835l117.247,31.417l-31.415-117.247c-2.098-7.827,2.547-15.871,10.374-17.968
	c7.822-2.099,15.869,2.548,17.967,10.374L462.3,444.334c1.357,5.063-0.091,10.464-3.797,14.172
	c-3.706,3.706-9.105,5.155-14.17,3.797l-130.918-35.079l-44.71,77.44C265.988,509.368,261.055,512,255.985,512z M63.872,462.802
	c-3.841,0-7.588-1.51-10.375-4.297c-3.706-3.706-5.154-9.107-3.797-14.172l35.079-130.917l-77.44-44.711
	c-7.017-4.051-9.421-13.023-5.369-20.04s13.022-9.42,20.04-5.369l87.19,50.339c5.751,3.32,8.554,10.087,6.835,16.503L84.619,427.385
	l117.247-31.417c7.822-2.098,15.869,2.547,17.967,10.374c2.098,7.827-2.547,15.871-10.374,17.968L67.669,462.302
	C66.411,462.638,65.136,462.802,63.872,462.802z M497.313,270.673c-2.488,0-5.01-0.634-7.321-1.967l-87.191-50.339
	c-5.751-3.32-8.554-10.087-6.835-16.503l31.415-117.247l-117.247,31.417c-7.821,2.098-15.869-2.547-17.967-10.374
	c-2.098-7.827,2.547-15.871,10.374-17.968l141.791-37.992c5.067-1.358,10.464,0.092,14.17,3.797
	c3.706,3.706,5.154,9.107,3.797,14.172L427.22,198.585l77.441,44.711c7.017,4.051,9.421,13.023,5.369,20.04
	C507.316,268.042,502.383,270.673,497.313,270.673z M101.855,220.335c-6.479,0-12.405-4.322-14.161-10.877L49.702,67.668
	c-1.357-5.063,0.091-10.464,3.797-14.172c3.706-3.706,9.105-5.155,14.17-3.797l130.918,35.079l44.71-77.44
	c4.049-7.015,13.02-9.423,20.04-5.369c7.017,4.051,9.421,13.023,5.369,20.04l-50.339,87.19c-3.32,5.751-10.089,8.554-16.501,6.835
	L84.619,84.617l31.415,117.247c2.098,7.827-2.547,15.871-10.374,17.968C104.389,220.172,103.111,220.335,101.855,220.335z"/>
<circle style="fill:#D1D1C1;" cx="256.001" cy="256.001" r="110.205"/>
<path style="fill:#000000;" d="M256,380.882c-68.861,0-124.881-56.022-124.881-124.881S187.141,131.119,256,131.119
	s124.881,56.022,124.881,124.881S324.859,380.882,256,380.882z M256,160.46c-52.68,0-95.54,42.858-95.54,95.54
	s42.86,95.54,95.54,95.54s95.54-42.858,95.54-95.54S308.68,160.46,256,160.46z"/>
    </g>

    <!-- -->
    
    <g class="section" id="uranus">
    <g>
	<path style="fill:none;" d="M71.312,339.206c-0.53-1.071-1.051-2.147-1.562-3.229c-0.153-0.323-0.302-0.647-0.453-0.971
		c-0.49-1.052-0.974-2.108-1.446-3.17c-0.157-0.354-0.311-0.711-0.466-1.066c-0.458-1.047-0.912-2.095-1.352-3.151
		c-0.154-0.368-0.302-0.74-0.453-1.109c-0.433-1.056-0.863-2.113-1.279-3.177c-0.135-0.347-0.264-0.698-0.397-1.046
		c-0.422-1.099-0.841-2.199-1.244-3.307c-0.072-0.199-0.139-0.4-0.211-0.599c-1.189-3.306-2.29-6.654-3.307-10.038
		c-10.91,10.607-15.822,19.524-13.269,25.792c2.553,6.267,12.309,9.206,27.524,9.17c-0.569-1.087-1.127-2.179-1.677-3.277
		C71.583,339.755,71.448,339.48,71.312,339.206z"/>
	<path style="fill:none;" d="M455.51,167.246c-2.554-6.269-12.304-9.214-27.527-9.176c5.802,11.084,10.594,22.778,14.257,34.962
		C453.144,182.428,458.063,173.511,455.51,167.246z"/>
	<path style="fill:#BBBBBB;" d="M364.025,104.024c-68.087,0-128.217,34.032-164.337,86.005c7.352-3.214,14.827-6.378,22.429-9.475
		c70.087-28.554,136.724-46.191,187.325-51.504C383.248,94.916,346.3,69.477,303.658,57.794
		c32.131,8.819,61.025,25.462,84.531,47.734C380.262,104.573,372.21,104.024,364.025,104.024z"/>
	<path style="fill:#BBBBBB;" d="M90.102,369.885c-0.578-0.777-1.144-1.563-1.711-2.349
		C88.956,368.323,89.525,369.107,90.102,369.885z"/>
	<path style="fill:#BBBBBB;" d="M285.187,53.664c1.202,0.209,2.399,0.434,3.594,0.665C287.586,54.099,286.389,53.873,285.187,53.664
		z"/>
	<path style="fill:#BBBBBB;" d="M289.904,54.544c1.281,0.255,2.556,0.525,3.827,0.805C292.459,55.07,291.185,54.799,289.904,54.544z
		"/>
	<path style="fill:#BBBBBB;" d="M299.141,56.613c1.447,0.361,2.888,0.737,4.322,1.129C302.028,57.35,300.588,56.973,299.141,56.613z
		"/>
	<path style="fill:#BBBBBB;" d="M442.191,193.081c0.017-0.016,0.032-0.032,0.049-0.049c-3.663-12.185-8.455-23.879-14.257-34.962
		c-38.626,0.097-112.509,19.413-193.649,52.47c-20.612,8.397-40.263,17.102-58.575,25.857c-7.589,21.124-11.734,43.89-11.734,67.627
		c0,57.178,24.033,108.712,62.502,145.162c-55.619-6.704-104.214-36.219-136.139-78.919c0.416,0.558,0.829,1.118,1.251,1.671
		c36.542,47.863,94.185,78.753,159.052,78.753c110.457,0,200-89.543,200-200c0-8.11-0.496-16.103-1.434-23.96
		c-0.008,0.006-0.015,0.012-0.023,0.018C447.851,215.189,445.461,203.947,442.191,193.081z"/>
	<path style="fill:#BBBBBB;" d="M69.75,335.978c0.511,1.082,1.032,2.158,1.562,3.229C70.782,338.135,70.261,337.059,69.75,335.978z"
		/>
	<path style="fill:#BBBBBB;" d="M66.033,327.62c0.44,1.056,0.894,2.104,1.352,3.151C66.927,329.724,66.473,328.675,66.033,327.62z"
		/>
	<path style="fill:#BBBBBB;" d="M64.301,323.333c0.415,1.065,0.846,2.122,1.279,3.177C65.147,325.455,64.716,324.398,64.301,323.333
		z"/>
	<path style="fill:#BBBBBB;" d="M62.66,318.981c0.403,1.108,0.823,2.208,1.244,3.307C63.482,321.189,63.062,320.089,62.66,318.981z"
		/>
	<path style="fill:#BBBBBB;" d="M86.967,365.539c-0.077-0.109-0.152-0.219-0.229-0.329C86.815,365.32,86.891,365.43,86.967,365.539z
		"/>
	<path style="fill:#BBBBBB;" d="M67.851,331.837c0.472,1.062,0.956,2.117,1.446,3.17C68.807,333.954,68.323,332.899,67.851,331.837z
		"/>
	<path style="fill:#BBBBBB;" d="M59.143,308.342l-0.001,0.001c1.017,3.384,2.118,6.732,3.307,10.038
		C61.259,315.076,60.161,311.726,59.143,308.342z"/>
	<path style="fill:#BBBBBB;" d="M294.554,55.528c1.362,0.305,2.719,0.626,4.071,0.959C297.273,56.154,295.917,55.833,294.554,55.528
		z"/>
	<path style="fill:#BBBBBB;" d="M51.413,267.635c-0.059-0.699-0.121-1.398-0.173-2.099
		C51.292,266.237,51.354,266.936,51.413,267.635z"/>
	<path style="fill:#BBBBBB;" d="M265.767,51.254c0.892,0.067,1.78,0.151,2.669,0.229C267.547,51.405,266.66,51.32,265.767,51.254z"
		/>
	<path style="fill:#BBBBBB;" d="M50.813,257.324c-0.018-0.552-0.045-1.102-0.058-1.656
		C50.768,256.222,50.795,256.772,50.813,257.324z"/>
	<path style="fill:#BBBBBB;" d="M260.784,50.943c0.792,0.039,1.579,0.096,2.369,0.145C262.363,51.04,261.576,50.983,260.784,50.943z
		"/>
	<path style="fill:#BBBBBB;" d="M255.759,50.755c0.633,0.016,1.261,0.048,1.892,0.07C257.019,50.803,256.391,50.77,255.759,50.755z"
		/>
	<path style="fill:#BBBBBB;" d="M73.397,343.305C73.397,343.305,73.397,343.305,73.397,343.305
		c-0.568-1.086-1.127-2.179-1.677-3.277C72.27,341.126,72.828,342.219,73.397,343.305z"/>
	<path style="fill:#BBBBBB;" d="M280.413,52.892c1.128,0.168,2.251,0.353,3.374,0.54C282.664,53.245,281.541,53.06,280.413,52.892z"
		/>
	<path style="fill:#BBBBBB;" d="M51.89,272.59c-0.079-0.724-0.159-1.447-0.23-2.173C51.731,271.143,51.811,271.866,51.89,272.59z"/>
	<path style="fill:#BBBBBB;" d="M275.583,52.231c1.053,0.131,2.1,0.278,3.148,0.426C277.683,52.51,276.636,52.362,275.583,52.231z"
		/>
	<path style="fill:#BBBBBB;" d="M270.7,51.684c0.976,0.097,1.948,0.211,2.92,0.323C272.647,51.896,271.676,51.781,270.7,51.684z"/>
	<path style="fill:#BBBBBB;" d="M51.053,262.585c-0.038-0.655-0.083-1.309-0.115-1.966C50.97,261.276,51.015,261.93,51.053,262.585z
		"/>
	<path style="fill:#888888;" d="M226.527,449.186c-38.469-36.45-62.502-87.984-62.502-145.162c0-23.737,4.145-46.503,11.734-67.627
		c-53.781,25.713-95.958,51.86-116.616,71.945c1.018,3.384,2.116,6.734,3.306,10.04c0.072,0.199,0.139,0.4,0.211,0.599
		c0.403,1.108,0.822,2.208,1.244,3.307c0.134,0.348,0.262,0.698,0.397,1.046c0.415,1.065,0.845,2.122,1.279,3.177
		c0.151,0.369,0.299,0.741,0.453,1.109c0.441,1.056,0.894,2.104,1.352,3.151c0.156,0.355,0.309,0.712,0.466,1.066
		c0.472,1.062,0.956,2.118,1.446,3.17c0.151,0.324,0.301,0.648,0.453,0.971c0.511,1.082,1.032,2.158,1.562,3.229
		c0.136,0.274,0.271,0.548,0.408,0.822c0.549,1.098,1.108,2.191,1.677,3.277c0.04,0,0.077,0.001,0.116,0.001
		c3.974,7.587,8.371,14.915,13.225,21.905c0.077,0.109,0.152,0.22,0.229,0.329c0.468,0.671,0.948,1.332,1.424,1.997
		c0.567,0.786,1.133,1.572,1.711,2.349c0.095,0.128,0.191,0.255,0.286,0.382C122.313,412.967,170.908,442.482,226.527,449.186z"/>
	<path style="fill:#888888;" d="M199.688,190.029c36.12-51.973,96.249-86.005,164.337-86.005c8.185,0,16.237,0.549,24.165,1.505
		c-23.506-22.272-52.4-38.915-84.531-47.734c-0.065-0.018-0.13-0.035-0.195-0.053c-1.434-0.392-2.875-0.768-4.322-1.129
		c-0.172-0.043-0.344-0.083-0.515-0.126c-1.352-0.333-2.708-0.654-4.071-0.959c-0.274-0.062-0.549-0.119-0.823-0.179
		c-1.272-0.28-2.547-0.55-3.827-0.805c-0.373-0.074-0.749-0.143-1.123-0.215c-1.195-0.231-2.392-0.456-3.594-0.665
		c-0.465-0.081-0.934-0.154-1.4-0.232c-1.122-0.187-2.245-0.372-3.374-0.54c-0.559-0.083-1.121-0.156-1.682-0.235
		c-1.047-0.147-2.095-0.295-3.148-0.426c-0.653-0.081-1.309-0.15-1.964-0.225c-0.972-0.111-1.943-0.225-2.92-0.323
		c-0.752-0.075-1.509-0.135-2.263-0.201c-0.889-0.078-1.777-0.162-2.669-0.229c-0.869-0.065-1.742-0.112-2.614-0.166
		c-0.789-0.049-1.577-0.106-2.369-0.145c-1.041-0.052-2.088-0.083-3.134-0.119c-0.631-0.021-1.259-0.054-1.892-0.07
		c-1.684-0.042-3.373-0.064-5.067-0.064c-110.457,0-200,89.543-200,200c0,1.664,0.022,3.323,0.063,4.978
		c0.013,0.553,0.04,1.103,0.058,1.656c0.036,1.1,0.072,2.2,0.125,3.295c0.032,0.657,0.077,1.311,0.115,1.966
		c0.058,0.985,0.115,1.97,0.187,2.951c0.052,0.701,0.114,1.4,0.173,2.099c0.078,0.929,0.156,1.857,0.247,2.782
		c0.071,0.726,0.151,1.449,0.23,2.173c0.074,0.682,0.143,1.365,0.224,2.045C87.694,246.493,139.248,216.453,199.688,190.029z"/>
	<path style="fill:#A0A0A0;" d="M499.727,149.232c-7.739-18.997-41.586-25.296-90.284-20.182
		c-50.601,5.313-117.238,22.95-187.325,51.504c-7.602,3.097-15.077,6.261-22.429,9.475c-60.44,26.424-111.994,56.464-147.574,84.606
		c-38.395,30.368-58.196,58.521-50.458,77.514c7.737,18.99,41.593,25.27,90.265,20.166c-0.095-0.124-0.187-0.252-0.282-0.377
		c-0.422-0.553-0.835-1.113-1.251-1.671c-0.095-0.128-0.192-0.254-0.286-0.382c-0.577-0.778-1.146-1.561-1.711-2.349
		c-0.476-0.664-0.956-1.326-1.424-1.997c-0.076-0.109-0.152-0.219-0.229-0.329c-4.854-6.989-9.251-14.318-13.225-21.905
		c-0.04,0-0.077-0.001-0.116-0.001c0,0,0,0-0.001,0c-15.215,0.036-24.971-2.903-27.524-9.17
		c-2.553-6.267,2.359-15.184,13.269-25.792l0.001-0.001c20.658-20.085,62.835-46.232,116.616-71.945
		c18.312-8.755,37.963-17.46,58.575-25.857c81.14-33.057,155.023-52.373,193.649-52.47c15.223-0.038,24.973,2.907,27.527,9.176
		c2.553,6.266-2.366,15.182-13.27,25.786c-0.017,0.016-0.032,0.032-0.049,0.049c3.271,10.866,5.66,22.108,7.044,33.667
		c0.008-0.006,0.015-0.012,0.023-0.018C487.636,196.37,507.463,168.221,499.727,149.232z"/>
</g>
</g>

    <!-- -->
    
    <g class="section" id="venus" transform="scale(1.45)">

<g>
	<path style="fill:#CCCCCC;" d="M296.21,54.89c16.02,16,28.89,35.16,37.56,56.48c8.07,19.84,12.51,41.54,12.51,64.27
		c0,12.3-1.3,24.3-3.78,35.86c-7.12,33.32-23.97,63.03-47.44,86.02c-11.33,11.11-24.22,20.66-38.3,28.27
		c-24.13,13.07-51.76,20.49-81.12,20.49c-2.86,0-5.7-0.07-8.52-0.21c-53.27-2.62-100.11-29.67-129.57-70.17
		C17.08,247.75,5,213.1,5,175.64c0-1.87,0.03-3.73,0.09-5.59C6.32,131.77,20.17,96.67,42.6,68.78c28.71-35.7,71.5-59.6,119.93-63.28
		c4.33-0.33,8.7-0.5,13.11-0.5c38.41,0,73.85,12.69,102.37,34.1C284.45,43.93,290.53,49.21,296.21,54.89z"/>
	<g>
		<path style="fill:#FFFFFF;" d="M138.198,113.245H127.83c-2.761,0-5-2.239-5-5s2.239-5,5-5h10.368c2.761,0,5,2.239,5,5
			S140.96,113.245,138.198,113.245z"/>
		<path style="fill:#4D4D4D;" d="M52.947,113.245h-5.185c-2.761,0-5-2.239-5-5s2.239-5,5-5h5.185c2.761,0,5,2.239,5,5
			S55.709,113.245,52.947,113.245z"/>
		<path style="fill:#FFFFFF;" d="M165.272,113.245h-10.368c-2.761,0-5-2.239-5-5s2.239-5,5-5h10.368c2.761,0,5,2.239,5,5
			S168.033,113.245,165.272,113.245z"/>
		<path style="fill:#4D4D4D;" d="M96.725,94.237H69.076c-2.761,0-5-2.239-5-5s2.239-5,5-5h27.649c2.761,0,5,2.239,5,5
			S99.486,94.237,96.725,94.237z"/>
		<path style="fill:#4D4D4D;" d="M169.304,44.699h-27.649c-2.761,0-5-2.239-5-5s2.239-5,5-5h27.649c2.761,0,5,2.239,5,5
			S172.065,44.699,169.304,44.699z"/>
		<path style="fill:#4D4D4D;" d="M124.95,67.74h-14.977c-2.761,0-5-2.239-5-5s2.239-5,5-5h14.977c2.761,0,5,2.239,5,5
			S127.711,67.74,124.95,67.74z"/>
		<path style="fill:#FFFFFF;" d="M181.976,67.74h-5.76c-2.761,0-5-2.239-5-5s2.239-5,5-5h5.76c2.761,0,5,2.239,5,5
			S184.737,67.74,181.976,67.74z"/>
		<path style="fill:#4D4D4D;" d="M199.257,67.74h-5.76c-2.761,0-5-2.239-5-5s2.239-5,5-5h5.76c2.761,0,5,2.239,5,5
			S202.018,67.74,199.257,67.74z"/>
		<path style="fill:#4D4D4D;" d="M262.044,67.74h-14.977c-2.761,0-5-2.239-5-5s2.239-5,5-5h14.977c2.761,0,5,2.239,5,5
			S264.805,67.74,262.044,67.74z"/>
		<path style="fill:#4D4D4D;" d="M89.813,67.741c-0.33,0-0.65-0.03-0.98-0.1c-0.32-0.06-0.63-0.16-0.93-0.28
			c-0.3-0.13-0.6-0.28-0.87-0.46c-0.27-0.19-0.53-0.39-0.76-0.63c-0.23-0.23-0.44-0.48-0.62-0.76c-0.18-0.27-0.33-0.56-0.46-0.86
			c-0.12-0.3-0.22-0.62-0.28-0.93c-0.07-0.33-0.1-0.66-0.1-0.98c0-1.32,0.53-2.61,1.46-3.54c0.23-0.23,0.49-0.44,0.76-0.62
			s0.56-0.33,0.87-0.46c0.3-0.12,0.61-0.22,0.93-0.28c1.63-0.33,3.36,0.2,4.52,1.36c0.23,0.23,0.43,0.49,0.62,0.76
			c0.18,0.27,0.33,0.56,0.46,0.87c0.12,0.3,0.22,0.61,0.28,0.93c0.07,0.32,0.1,0.65,0.1,0.98c0,1.32-0.53,2.61-1.46,3.53
			C92.413,67.211,91.133,67.741,89.813,67.741z"/>
		<path style="fill:#4D4D4D;" d="M119.766,94.237h-5.184c-2.761,0-5-2.239-5-5s2.239-5,5-5h5.184c2.761,0,5,2.239,5,5
			S122.527,94.237,119.766,94.237z"/>
		<path style="fill:#FFFFFF;" d="M215.422,94.237h-11.017c-2.761,0-5-2.239-5-5s2.239-5,5-5h11.017c2.761,0,5,2.239,5,5
			S218.183,94.237,215.422,94.237z"/>
		<path style="fill:#FFFFFF;" d="M165.272,184.672h-10.368c-2.761,0-5-2.239-5-5s2.239-5,5-5h10.368c2.761,0,5,2.239,5,5
			S168.033,184.672,165.272,184.672z"/>
		<path style="fill:#4D4D4D;" d="M29.33,184.672H18.962c-2.761,0-5-2.239-5-5s2.239-5,5-5H29.33c2.761,0,5,2.239,5,5
			S32.091,184.672,29.33,184.672z"/>
		<path style="fill:#4D4D4D;" d="M61.588,207.713H51.219c-2.761,0-5-2.239-5-5s2.239-5,5-5h10.368c2.761,0,5,2.239,5,5
			S64.349,207.713,61.588,207.713z"/>
		<path style="fill:#FFFFFF;" d="M184.857,207.713h-10.369c-2.761,0-5-2.239-5-5s2.239-5,5-5h10.369c2.761,0,5,2.239,5,5
			S187.618,207.713,184.857,207.713z"/>
		<path style="fill:#4D4D4D;" d="M137.047,233.058h-10.368c-2.761,0-5-2.239-5-5s2.239-5,5-5h10.368c2.761,0,5,2.239,5,5
			S139.808,233.058,137.047,233.058z"/>
		<path style="fill:#4D4D4D;" d="M107.67,255.523H97.301c-2.761,0-5-2.239-5-5s2.239-5,5-5h10.369c2.761,0,5,2.239,5,5
			S110.431,255.523,107.67,255.523z"/>
		<path style="fill:#FFFFFF;" d="M195.225,255.523h-10.368c-2.761,0-5-2.239-5-5s2.239-5,5-5h10.368c2.761,0,5,2.239,5,5
			S197.986,255.523,195.225,255.523z"/>
		<path style="fill:#FFFFFF;" d="M184.28,269.924h-20.737c-2.761,0-5-2.239-5-5s2.239-5,5-5h20.737c2.761,0,5,2.239,5,5
			S187.042,269.924,184.28,269.924z"/>
		<path style="fill:#FFFFFF;" d="M151.447,300.453H133.59c-2.761,0-5-2.239-5-5s2.239-5,5-5h17.856c2.761,0,5,2.239,5,5
			S154.208,300.453,151.447,300.453z"/>
		<path style="fill:#4D4D4D;" d="M219.994,284.9h-6.336c-2.761,0-5-2.239-5-5s2.239-5,5-5h6.336c2.761,0,5,2.239,5,5
			S222.755,284.9,219.994,284.9z"/>
		<path style="fill:#FFFFFF;" d="M173.336,316.581h-6.913c-2.761,0-5-2.239-5-5s2.239-5,5-5h6.913c2.761,0,5,2.239,5,5
			S176.097,316.581,173.336,316.581z"/>
		<path style="fill:#4D4D4D;" d="M117.462,316.581h-6.912c-2.761,0-5-2.239-5-5s2.239-5,5-5h6.912c2.761,0,5,2.239,5,5
			S120.223,316.581,117.462,316.581z"/>
		<path style="fill:#4D4D4D;" d="M93.643,272.454H81.547c-2.761,0-5-2.239-5-5s2.239-5,5-5h12.097c2.761,0,5,2.239,5,5
			S96.404,272.454,93.643,272.454z"/>
		<path style="fill:#4D4D4D;" d="M265.5,269.924h-12.097c-2.761,0-5-2.239-5-5s2.239-5,5-5H265.5c2.761,0,5,2.239,5,5
			S268.261,269.924,265.5,269.924z"/>
		<path style="fill:#4D4D4D;" d="M278.31,255.788h-17.856c-2.761,0-5-2.239-5-5s2.239-5,5-5h17.856c2.761,0,5,2.239,5,5
			S281.071,255.788,278.31,255.788z"/>
		<path style="fill:#4D4D4D;" d="M74.26,255.523H54.675c-2.761,0-5-2.239-5-5s2.239-5,5-5H74.26c2.761,0,5,2.239,5,5
			S77.021,255.523,74.26,255.523z"/>
		<path style="fill:#4D4D4D;" d="M300.637,233.058h-10.368c-2.761,0-5-2.239-5-5s2.239-5,5-5h10.368c2.761,0,5,2.239,5,5
			S303.398,233.058,300.637,233.058z"/>
		<path style="fill:#4D4D4D;" d="M276.011,233.058h-10.368c-2.761,0-5-2.239-5-5s2.239-5,5-5h10.368c2.761,0,5,2.239,5,5
			S278.773,233.058,276.011,233.058z"/>
		<path style="fill:#FFFFFF;" d="M212.505,233.058h-10.369c-2.761,0-5-2.239-5-5s2.239-5,5-5h10.369c2.761,0,5,2.239,5,5
			S215.267,233.058,212.505,233.058z"/>
		<path style="fill:#4D4D4D;" d="M123.798,207.713h-16.705c-2.761,0-5-2.239-5-5s2.239-5,5-5h16.705c2.761,0,5,2.239,5,5
			S126.559,207.713,123.798,207.713z"/>
		<path style="fill:#4D4D4D;" d="M90.389,184.672H66.196c-2.761,0-5-2.239-5-5s2.239-5,5-5h24.193c2.761,0,5,2.239,5,5
			S93.15,184.672,90.389,184.672z"/>
		<path style="fill:#4D4D4D;" d="M49.643,184.671c-0.33,0-0.65-0.03-0.98-0.1c-0.32-0.06-0.63-0.16-0.93-0.28
			c-0.3-0.13-0.59-0.28-0.86-0.46c-0.28-0.18-0.53-0.39-0.77-0.62c-0.93-0.93-1.46-2.22-1.46-3.54c0-0.32,0.03-0.65,0.1-0.98
			c0.06-0.31,0.16-0.63,0.28-0.93c0.13-0.3,0.28-0.59,0.46-0.86c0.19-0.28,0.39-0.53,0.62-0.76c0.24-0.23,0.49-0.44,0.77-0.62
			c0.27-0.19,0.56-0.34,0.86-0.46c0.3-0.13,0.61-0.23,0.93-0.29c1.63-0.33,3.36,0.21,4.52,1.37c0.23,0.23,0.44,0.48,0.62,0.76
			c0.18,0.27,0.33,0.56,0.46,0.86c0.12,0.3,0.22,0.62,0.28,0.93c0.07,0.33,0.1,0.66,0.1,0.98c0,1.32-0.53,2.61-1.46,3.54
			c-0.23,0.23-0.49,0.44-0.76,0.62s-0.57,0.33-0.87,0.46c-0.3,0.12-0.61,0.22-0.93,0.28
			C50.293,184.641,49.973,184.671,49.643,184.671z"/>
		<path style="fill:#FFFFFF;" d="M182.313,184.671c-1.32,0-2.61-0.53-3.54-1.46c-0.93-0.93-1.46-2.22-1.46-3.54
			c0-0.33,0.03-0.65,0.1-0.98c0.06-0.31,0.16-0.63,0.28-0.93s0.28-0.59,0.46-0.86c0.18-0.28,0.39-0.53,0.62-0.76
			c1.16-1.16,2.89-1.7,4.51-1.37c0.32,0.06,0.64,0.16,0.94,0.29c0.3,0.12,0.59,0.27,0.86,0.45c0.28,0.19,0.53,0.4,0.76,0.63
			s0.44,0.48,0.62,0.76c0.18,0.27,0.34,0.56,0.46,0.86c0.13,0.3,0.22,0.62,0.29,0.93c0.06,0.33,0.1,0.65,0.1,0.98
			c0,1.32-0.54,2.61-1.47,3.54c-0.23,0.23-0.48,0.44-0.76,0.62c-0.27,0.18-0.56,0.33-0.86,0.46c-0.3,0.12-0.62,0.22-0.94,0.28
			C182.963,184.641,182.633,184.671,182.313,184.671z"/>
		<path style="fill:#4D4D4D;" d="M181.973,44.701c-0.32,0-0.65-0.03-0.97-0.1c-0.32-0.06-0.64-0.16-0.94-0.28
			c-0.3-0.13-0.59-0.28-0.86-0.46c-0.27-0.19-0.53-0.4-0.76-0.63c-0.93-0.93-1.46-2.21-1.46-3.53c0-0.33,0.03-0.66,0.09-0.98
			c0.07-0.32,0.16-0.63,0.29-0.93c0.12-0.31,0.28-0.6,0.46-0.87c0.18-0.27,0.39-0.53,0.62-0.76s0.49-0.44,0.76-0.62
			c0.27-0.18,0.56-0.33,0.86-0.46c0.3-0.12,0.62-0.22,0.94-0.28c0.64-0.13,1.31-0.13,1.95,0c0.32,0.06,0.64,0.16,0.94,0.28
			c0.3,0.13,0.59,0.28,0.86,0.46s0.53,0.39,0.76,0.62s0.44,0.49,0.62,0.76c0.18,0.27,0.34,0.56,0.46,0.87
			c0.13,0.3,0.22,0.61,0.29,0.93c0.06,0.32,0.09,0.65,0.09,0.98c0,1.32-0.53,2.6-1.46,3.53c-0.23,0.23-0.49,0.44-0.76,0.63
			c-0.27,0.18-0.56,0.33-0.86,0.46c-0.3,0.12-0.62,0.22-0.94,0.28C182.633,44.671,182.303,44.701,181.973,44.701z"/>
		<path style="fill:#FFFFFF;" d="M191.769,134.558H181.4c-2.761,0-5-2.239-5-5s2.239-5,5-5h10.369c2.761,0,5,2.239,5,5
			S194.53,134.558,191.769,134.558z"/>
		<path style="fill:#4D4D4D;" d="M313.73,134.558h-18.733c-2.761,0-5-2.239-5-5s2.239-5,5-5h18.733c2.761,0,5,2.239,5,5
			S316.491,134.558,313.73,134.558z"/>
		<path style="fill:#4D4D4D;" d="M111.701,134.558h-10.368c-2.761,0-5-2.239-5-5s2.239-5,5-5h10.368c2.761,0,5,2.239,5,5
			S114.463,134.558,111.701,134.558z"/>
		<path style="fill:#4D4D4D;" d="M253.503,155.291c-1.31,0-2.6-0.53-3.53-1.46c-0.93-0.93-1.47-2.22-1.47-3.53
			c0-1.32,0.54-2.61,1.47-3.54c1.16-1.16,2.89-1.69,4.51-1.37c0.32,0.07,0.63,0.16,0.94,0.29c0.3,0.12,0.59,0.28,0.86,0.46
			c0.27,0.18,0.53,0.39,0.76,0.62c0.93,0.93,1.46,2.22,1.46,3.54c0,1.31-0.53,2.6-1.46,3.53c-0.23,0.23-0.49,0.44-0.76,0.62
			c-0.27,0.18-0.56,0.34-0.86,0.46c-0.31,0.13-0.62,0.22-0.94,0.29C254.163,155.261,253.833,155.291,253.503,155.291z"/>
		<path style="fill:#4D4D4D;" d="M86.313,155.291c-0.33,0-0.66-0.03-0.98-0.09c-0.32-0.07-0.63-0.16-0.94-0.29
			c-0.3-0.12-0.59-0.28-0.86-0.46c-0.27-0.18-0.53-0.39-0.76-0.62s-0.44-0.49-0.62-0.76s-0.34-0.56-0.46-0.86
			c-0.13-0.31-0.22-0.62-0.29-0.94c-0.06-0.32-0.09-0.65-0.09-0.98c0-0.32,0.03-0.65,0.09-0.97c0.07-0.32,0.16-0.64,0.29-0.94
			c0.12-0.3,0.28-0.59,0.46-0.86s0.39-0.53,0.62-0.76s0.49-0.44,0.76-0.62c0.27-0.18,0.56-0.34,0.86-0.46
			c0.31-0.13,0.62-0.22,0.94-0.29c1.63-0.32,3.35,0.21,4.51,1.37c0.23,0.23,0.44,0.49,0.62,0.76s0.34,0.56,0.46,0.86
			c0.13,0.3,0.22,0.62,0.29,0.94c0.06,0.32,0.1,0.65,0.1,0.97c0,0.33-0.04,0.66-0.1,0.98c-0.07,0.32-0.16,0.63-0.29,0.94
			c-0.12,0.3-0.28,0.59-0.46,0.86s-0.39,0.53-0.62,0.76s-0.48,0.44-0.76,0.62c-0.27,0.18-0.56,0.34-0.86,0.46
			c-0.3,0.13-0.62,0.22-0.94,0.29C86.963,155.261,86.633,155.291,86.313,155.291z"/>
		<path style="fill:#4D4D4D;" d="M275.868,155.295H265.5c-2.761,0-5-2.239-5-5s2.239-5,5-5h10.368c2.761,0,5,2.239,5,5
			S278.629,155.295,275.868,155.295z"/>
		<path style="fill:#4D4D4D;" d="M332.318,155.295H321.95c-2.761,0-5-2.239-5-5s2.239-5,5-5h10.368c2.761,0,5,2.239,5,5
			S335.079,155.295,332.318,155.295z"/>
		<path style="fill:#4D4D4D;" d="M61.011,155.295H50.643c-2.761,0-5-2.239-5-5s2.239-5,5-5h10.368c2.761,0,5,2.239,5,5
			S63.773,155.295,61.011,155.295z"/>
		<path style="fill:#4D4D4D;" d="M258.011,113.245h-10.369c-2.761,0-5-2.239-5-5s2.239-5,5-5h10.369c2.761,0,5,2.239,5,5
			S260.773,113.245,258.011,113.245z"/>
	</g>
	<path style="opacity:0.25;enable-background:new    ;" d="M190.248,336.994c-19.96-7.05-38.22-17.72-53.98-31.21
		c-36.59-31.3-59.78-77.8-59.78-129.72c0-46.04,18.24-87.83,47.88-118.52c16.33-16.91,36.12-30.46,58.23-39.5
		c9.22-3.765,18.846-6.738,28.788-8.857c-11.529-2.458-23.483-3.763-35.745-3.763c-22.84,0-44.62,4.49-64.53,12.62
		c-22.11,9.04-41.9,22.59-58.23,39.5c-29.64,30.69-47.88,72.48-47.88,118.52c0,51.92,23.19,98.42,59.78,129.72
		c15.76,13.49,34.02,24.16,53.98,31.21c17.79,6.29,36.94,9.71,56.88,9.71c12.255,0,24.208-1.3,35.734-3.756
		C204.154,341.408,197.099,339.416,190.248,336.994z"/>
	<path style="fill:#000000;" d="M175.64,351.28C78.792,351.28,0,272.488,0,175.64S78.792,0,175.64,0s175.64,78.792,175.64,175.64
		S272.488,351.28,175.64,351.28z M175.64,10C84.306,10,10,84.306,10,175.64s74.306,165.64,165.64,165.64
		s165.64-74.306,165.64-165.64S266.974,10,175.64,10z"/>
	<g>
		<path style="fill:#FFFFFF;" d="M250.338,52.602c-0.907,0-1.824-0.247-2.649-0.763c-5.903-3.698-12.117-6.994-18.472-9.799
			c-2.526-1.115-3.67-4.067-2.555-6.593c1.115-2.526,4.068-3.67,6.593-2.555c6.792,2.998,13.434,6.521,19.742,10.473
			c2.34,1.466,3.049,4.551,1.583,6.892C253.63,51.771,252.003,52.602,250.338,52.602z"/>
		<path style="fill:#FFFFFF;" d="M273.435,290.345c-1.335,0-2.667-0.532-3.652-1.584c-1.886-2.017-1.781-5.181,0.235-7.067
			c29.375-27.482,46.223-66.24,46.223-106.334c0-40.323-16.17-77.856-45.532-105.684c-2.004-1.9-2.089-5.064-0.189-7.069
			c1.899-2.004,5.065-2.089,7.068-0.19c31.374,29.735,48.653,69.845,48.653,112.942c0,42.852-18.002,84.271-49.391,113.636
			C275.886,289.898,274.659,290.345,273.435,290.345z"/>
		<path style="fill:#FFFFFF;" d="M252.404,306.807c-1.637,0-3.241-0.803-4.199-2.278c-1.503-2.316-0.845-5.413,1.472-6.916
			c2.549-1.655,5.081-3.413,7.524-5.226c2.218-1.646,5.349-1.182,6.995,1.035s1.182,5.349-1.036,6.995
			c-2.61,1.937-5.315,3.816-8.039,5.584C254.281,306.546,253.337,306.807,252.404,306.807z"/>
	</g>
</g>    
</g>
    
    <!-- -->
    
    <g class="section" id="galilean-moons" transform="scale(9.5)">
<g transform="rotate(45,29,29) translate(16,16) scale(0.6)">
<g>
	<path style="fill:#AAAAAA;" d="M3.771,31c3.573,0,7.051-0.978,10.056-2.828C16.134,26.751,18.96,26,22,26s5.866,0.751,8.174,2.172
		C33.179,30.022,36.657,31,40.23,31h17.615c0.027,0,0.05,0.013,0.077,0.016C57.968,30.349,58,29.678,58,29
		c0-0.678-0.032-1.349-0.078-2.016C57.896,26.986,57.873,27,57.846,27H39c-0.553,0-1-0.448-1-1s0.447-1,1-1h18.719
		c-0.189-1.368-0.474-2.704-0.846-4.003c-0.091,0.027-0.181,0.057-0.28,0.057H27c-0.553,0-1-0.448-1-1s0.447-1,1-1h29.248
		c-0.525-1.437-1.165-2.819-1.9-4.139c-0.147,0.085-0.308,0.146-0.49,0.146H48c-0.553,0-1-0.448-1-1s0.447-1,1-1h5.223
		C48.036,5.194,39.127,0,29,0C21.265,0,14.242,3.035,9.043,7.971h8.02c0.553,0,1,0.448,1,1s-0.447,1-1,1H8.029
		c-0.26,0-0.492-0.105-0.67-0.268c-0.939,1.053-1.802,2.175-2.582,3.357H10c0.553,0,1,0.448,1,1s-0.447,1-1,1H4.142
		c-0.182,0-0.343-0.062-0.49-0.146C3.098,15.908,2.601,16.938,2.165,18h5.693c0.553,0,1,0.448,1,1s-0.447,1-1,1H2
		c-0.192,0-0.362-0.069-0.514-0.163c-0.349,1.05-0.646,2.123-0.875,3.222H14c0.553,0,1,0.448,1,1s-0.447,1-1,1H0.42
		c-0.051,0-0.094-0.022-0.143-0.029C0.099,26.329,0,27.653,0,29c0,0.678,0.032,1.349,0.078,2.016C0.104,31.013,0.127,31,0.154,31
		H3.771z"/>
	<path style="fill:#BBBBBB;" d="M30.174,43.828C27.866,45.249,25.04,46,22,46s-5.866-0.751-8.174-2.172
		C10.821,41.978,7.344,41,3.771,41h-1.17c0.688,1.511,1.496,2.955,2.423,4.314c0.2-0.142,0.45-0.216,0.713-0.18
		c1.963,0.27,3.803,0.926,5.469,1.952C14.301,48.992,18.033,50,22,50s7.699-1.008,10.795-2.914C35.012,45.721,37.582,45,40.229,45
		h12.259c0.216,0,0.405,0.083,0.568,0.199c0.894-1.325,1.674-2.731,2.342-4.199H40.23C36.657,41,33.179,41.978,30.174,43.828z"/>
	<path style="fill:#BBBBBB;" d="M29.125,29.875C27.134,28.648,24.67,28,22,28s-5.134,0.648-7.125,1.875
		C11.554,31.919,7.714,33,3.771,33H0.281c0.291,2.105,0.802,4.138,1.519,6.074C1.914,39.029,2.036,39,2.165,39h1.605
		c3.943,0,7.783,1.081,11.104,3.125C16.866,43.352,19.33,44,22,44s5.134-0.648,7.125-1.875C32.446,40.081,36.286,39,40.23,39h15.604
		c0.129,0,0.251,0.029,0.365,0.074c0.717-1.935,1.228-3.969,1.519-6.074H40.23C36.286,33,32.446,31.919,29.125,29.875z"/>
	<circle style="fill:#BBBBBB;" cx="22" cy="26" r="19"/>
	<path style="fill:#AAAAAA;" d="M33.844,48.789C30.433,50.89,26.337,52,22,52s-8.433-1.11-11.844-3.211
		c-1.125-0.693-2.347-1.182-3.638-1.474C11.836,53.835,19.931,58,29,58c5.363,0,10.383-1.462,14.692-4H34c-0.553,0-1-0.448-1-1
		s0.447-1,1-1h11.146c0.365,0,0.669,0.205,0.844,0.496c2.156-1.562,4.087-3.412,5.739-5.496H40.229
		C37.952,47,35.744,47.619,33.844,48.789z"/>
	<circle style="fill:#CCCCCC;" cx="19" cy="23" r="12"/>
	<path style="fill:#777777;" d="M40.229,45c-2.647,0-5.218,0.721-7.435,2.086C29.699,48.992,25.967,50,22,50
		s-7.699-1.008-10.795-2.914c-1.666-1.026-3.506-1.683-5.469-1.952c-0.263-0.037-0.513,0.037-0.713,0.18
		c0.47,0.689,0.969,1.356,1.495,2.001c1.291,0.293,2.512,0.781,3.638,1.474C13.567,50.89,17.663,52,22,52s8.433-1.11,11.844-3.211
		c1.9-1.17,4.108-1.789,6.386-1.789h11.499c0.463-0.584,0.91-1.181,1.328-1.801C52.893,45.083,52.704,45,52.488,45H40.229z"/>
	<path style="fill:#777777;" d="M57.846,31H40.23c-3.573,0-7.052-0.978-10.057-2.828C27.866,26.751,25.04,26,22,26
		s-5.866,0.751-8.174,2.172C10.821,30.022,7.344,31,3.771,31H0.154c-0.027,0-0.05,0.013-0.077,0.016
		c0.046,0.668,0.113,1.33,0.204,1.984h3.489c3.943,0,7.783-1.081,11.104-3.125C16.866,28.648,19.33,28,22,28
		s5.134,0.648,7.125,1.875C32.446,31.919,36.286,33,40.23,33h17.488c0.09-0.655,0.158-1.317,0.204-1.984
		C57.896,31.013,57.873,31,57.846,31z"/>
	<path style="fill:#777777;" d="M40.23,39c-3.944,0-7.784,1.081-11.105,3.125C27.134,43.352,24.67,44,22,44
		s-5.134-0.648-7.125-1.875C11.554,40.081,7.714,39,3.771,39H2.165c-0.13,0-0.251,0.029-0.365,0.074
		C2.043,39.728,2.313,40.369,2.601,41h1.17c3.573,0,7.051,0.978,10.056,2.828C16.134,45.249,18.96,46,22,46s5.866-0.751,8.174-2.172
		C33.179,41.978,36.657,41,40.23,41h15.169c0.287-0.631,0.558-1.272,0.801-1.926C56.086,39.029,55.964,39,55.835,39H40.23z"/>
	<path style="fill:#777777;" d="M45.146,52H34c-0.553,0-1,0.448-1,1s0.447,1,1,1h9.692c0.791-0.466,1.557-0.968,2.297-1.504
		C45.815,52.205,45.51,52,45.146,52z"/>
	<path style="fill:#777777;" d="M38,26c0,0.552,0.447,1,1,1h18.846c0.027,0,0.05-0.013,0.077-0.016
		c-0.046-0.668-0.113-1.33-0.204-1.984H39C38.447,25,38,25.447,38,26z"/>
	<path style="fill:#777777;" d="M26,20.053c0,0.552,0.447,1,1,1h29.592c0.099,0,0.19-0.03,0.28-0.057
		c-0.188-0.657-0.391-1.307-0.624-1.943H27C26.447,19.053,26,19.5,26,20.053z"/>
	<path style="fill:#777777;" d="M14,25.06c0.553,0,1-0.448,1-1s-0.447-1-1-1H0.611c-0.135,0.649-0.243,1.307-0.334,1.971
		c0.049,0.007,0.092,0.029,0.143,0.029H14z"/>
	<path style="fill:#777777;" d="M47,14.06c0,0.552,0.447,1,1,1h5.858c0.182,0,0.343-0.062,0.49-0.146
		c-0.352-0.633-0.728-1.251-1.126-1.854H48C47.447,13.06,47,13.507,47,14.06z"/>
	<path style="fill:#777777;" d="M10,15.06c0.553,0,1-0.448,1-1s-0.447-1-1-1H4.777c-0.397,0.603-0.773,1.221-1.126,1.854
		c0.147,0.085,0.308,0.146,0.49,0.146H10z"/>
	<path style="fill:#777777;" d="M7.858,20c0.553,0,1-0.448,1-1s-0.447-1-1-1H2.165c-0.247,0.602-0.472,1.216-0.679,1.837
		C1.638,19.931,1.808,20,2,20H7.858z"/>
	<path style="fill:#777777;" d="M17.062,9.971c0.553,0,1-0.448,1-1s-0.447-1-1-1h-8.02C8.458,8.525,7.895,9.102,7.359,9.703
		c0.178,0.163,0.41,0.268,0.67,0.268H17.062z"/>
	<path style="fill:#707070;" d="M41.393,10h-2.245c-0.057,0-0.074-0.082-0.02-0.1c0.896-0.296,1.512-1.209,1.345-2.236
		C40.313,6.681,39.389,6,38.393,6H33.5c-1.088,0-1.973,0.869-1.999,1.951C31.5,7.978,31.479,8,31.452,8h-2.845
		c-0.996,0-1.92,0.681-2.08,1.664c-0.167,1.027,0.449,1.94,1.345,2.236c0.054,0.018,0.037,0.1-0.02,0.1h-3.245
		c-0.996,0-1.92,0.681-2.08,1.664C22.323,14.917,23.285,16,24.5,16h10c1.088,0,1.973-0.869,1.999-1.951
		C36.5,14.022,36.521,14,36.548,14H41.5c1.215,0,2.177-1.083,1.973-2.336C43.313,10.681,42.389,10,41.393,10z"/>
	<path style="fill:#555555;" d="M22,41c-4.337,0-8-2.29-8-5s3.663-5,8-5s8,2.29,8,5S26.337,41,22,41z"/>

</g>

</g>

<circle style="fill:#000000;" cx="2" cy="2" r="2"/>
<circle style="fill:#000000;" cx="12" cy="12" r="2"/>
<circle style="fill:#000000;" cx="36" cy="36" r="2"/>
<circle style="fill:#000000;" cx="50" cy="50" r="2"/>
</g>



    <!-- -->
    
    <g class="section" id="noname">
</g>
    </svg>
