<?xml version="1.0" encoding="iso-8859-1"?>
<!-- Generator: Adobe Illustrator 19.0.0, SVG Export Plug-In . SVG Version: 6.00 Build 0)  -->
<svg version="1.1" xmlns="http://www.w3.org/2000/svg" xmlns:xlink="http://www.w3.org/1999/xlink" width="512" height="512">

<defs>
  <style>
    g.section:target {
      display: inline;
    }

    g.section:not(:target) {
        display: none;
    }
    
  </style>
</defs>

    <g class="section" id="double-arrow" transform="scale(2)">
			<path stroke="#444444" fill="#444444" d="M217.774,121.224l-95.252,84.224l-95.22-84.224c-6.229-6.229-16.368-6.229-22.597,0
				s-6.229,16.368,0,22.566l106.312,94.044c3.178,3.21,7.342,4.704,11.505,4.64c4.164,0.095,8.327-1.398,11.505-4.545
				l106.344-94.044c6.198-6.229,6.198-16.4,0-22.597C234.11,115.027,223.971,114.995,217.774,121.224z"/>
			<path  stroke="#444444" fill="#444444"  d="M110.984,123.894c3.178,3.178,7.342,4.704,11.505,4.64c4.164,0.064,8.359-1.462,11.505-4.64
				L240.307,29.85c6.325-6.229,6.325-16.336,0.064-22.597c-6.229-6.229-16.4-6.229-22.597,0l-95.252,84.224L27.301,7.252
				c-6.261-6.229-16.4-6.229-22.629,0s-6.229,16.368,0,22.597L110.984,123.894z"/>
	</g>
    
    
    <g class="section"  id="icon">

    <g>
<!-- outline -->
<circle style="fill:#ffffff;" cx="256.003" cy="256.003" r="256"/>

</g>
     
<g transform="scale(0.9) translate(30 30)">     
     <circle style="fill:#CCCCCC;" cx="256.003" cy="256.003" r="248"/>
<g>
	<circle style="fill:#666666;" cx="288.003" cy="64.001" r="23.998"/>
	<circle style="fill:#666666;" cx="175.997" cy="256.003" r="16"/>
	<circle style="fill:#666666;" cx="64.001" cy="376.001" r="16"/>
	<circle style="fill:#666666;" cx="335.998" cy="175.997" r="16"/>
	<circle style="fill:#666666;" cx="200.005" cy="440.002" r="23.998"/>
	<circle style="fill:#666666;" cx="79.996" cy="183.999" r="56"/>
	<path style="fill:#666666;" d="M255.999,8.001c136.966,0,248,111.033,248,248s-111.034,248-248,248
		C255.999,504,435.668,195.435,255.999,8.001"/>
</g>
<g>
	<path style="fill:#1D1D1B;" d="M288,95.635c-17.443,0-31.635-14.191-31.635-31.635S270.556,32.367,288,32.367
		c17.443,0,31.634,14.191,31.634,31.634C319.634,81.444,305.443,95.635,288,95.635z M288,47.635
		c-9.024,0-16.366,7.341-16.366,16.365S278.976,80.366,288,80.366S304.366,73.023,304.366,64
		C304.366,54.977,297.024,47.635,288,47.635z"/>
	<path style="fill:#1D1D1B;" d="M176,279.634c-13.031,0-23.634-10.603-23.634-23.635s10.603-23.635,23.634-23.635
		c13.033,0,23.635,10.603,23.635,23.635C199.635,269.032,189.032,279.634,176,279.634z M176,247.634
		c-4.613,0-8.365,3.753-8.365,8.365c0,4.612,3.752,8.365,8.365,8.365s8.365-3.753,8.365-8.365
		C184.365,251.387,180.613,247.634,176,247.634z"/>
	<path style="fill:#1D1D1B;" d="M200,471.634c-17.443,0-31.635-14.191-31.635-31.635c0-17.443,14.191-31.635,31.635-31.635
		s31.634,14.191,31.634,31.635C231.634,457.443,217.443,471.634,200,471.634z M200,423.635c-9.024,0-16.366,7.341-16.366,16.366
		c0,9.025,7.342,16.366,16.366,16.366c9.024,0,16.365-7.341,16.365-16.366C216.365,430.976,209.023,423.635,200,423.635z"/>
	<path style="fill:#1D1D1B;" d="M368.001,423.635c-26.266,0-47.635-21.369-47.635-47.635c0-26.266,21.369-47.634,47.635-47.634
		c26.265,0,47.634,21.369,47.634,47.634C415.634,402.265,394.266,423.635,368.001,423.635z M368.001,343.635
		c-17.847,0-32.367,14.519-32.367,32.365c0,17.847,14.521,32.366,32.367,32.366s32.365-14.519,32.365-32.366
		C400.365,358.154,385.847,343.635,368.001,343.635z"/>
	<path style="fill:#1D1D1B;" d="M336,199.635c-13.033,0-23.635-10.603-23.635-23.635c0-13.031,10.603-23.634,23.635-23.634
		c13.033,0,23.634,10.603,23.634,23.634C359.633,189.032,349.032,199.635,336,199.635z M336,167.634
		c-4.613,0-8.366,3.752-8.366,8.365s3.754,8.365,8.366,8.365c4.612,0,8.365-3.753,8.365-8.365S340.612,167.634,336,167.634z"/>
	<path style="fill:#1D1D1B;" d="M437.019,74.981C388.667,26.629,324.38,0,255.999,0S123.332,26.629,74.98,74.981S0,187.62,0,256
		S26.629,388.668,74.98,437.02S187.619,512,255.999,512c44.898,0,89.071-11.791,127.743-34.101
		c37.511-21.64,69.172-52.678,91.562-89.761C499.31,348.379,512,302.687,512,256.001C512,187.62,485.37,123.333,437.019,74.981z
		 M464.365,152c0,17.847-14.519,32.366-32.366,32.366c-17.847,0-32.366-14.519-32.366-32.366c0-17.846,14.519-32.365,32.366-32.365
		C449.846,119.635,464.365,134.154,464.365,152z M80,135.635c26.669,0,48.366,21.697,48.366,48.366
		c0,26.668-21.697,48.365-48.366,48.365c-26.668,0-48.365-21.697-48.365-48.365C31.635,157.331,53.331,135.635,80,135.635z
		 M55.634,376c0-4.613,3.752-8.365,8.365-8.365c4.613,0,8.365,3.752,8.365,8.365s-3.753,8.365-8.365,8.365
		S55.634,380.613,55.634,376z M461.608,379.867c-20.996,34.775-50.687,63.881-85.86,84.172C339.504,484.948,298.096,496,255.999,496
		c-64.106,0-124.375-24.965-169.706-70.294c-8.222-8.222-15.764-16.941-22.618-26.08c0.108,0.001,0.216,0.008,0.324,0.008
		c13.032,0,23.635-10.603,23.635-23.635c0-13.031-10.603-23.634-23.635-23.634c-9.465,0-17.643,5.595-21.413,13.648
		C25.216,332.409,16,294.916,16,255.999c0-16.482,1.663-32.708,4.885-48.493c9.372,23.483,32.329,40.128,59.115,40.128
		c35.088,0,63.635-28.546,63.635-63.634S115.088,120.365,80,120.365c-9.14,0-17.827,1.952-25.69,5.436
		c9.142-14.098,19.822-27.346,31.985-39.508c45.33-45.33,105.599-70.294,169.706-70.294s124.375,24.965,169.705,70.294
		c6.192,6.193,11.99,12.673,17.411,19.395c-3.569-0.857-7.288-1.323-11.116-1.323c-26.266,0-47.635,21.369-47.635,47.634
		s21.369,47.635,47.635,47.635c21.967,0,40.499-14.951,45.979-35.209C489.8,193.084,496,224.065,496,256
		C496,299.771,484.106,342.605,461.608,379.867z"/>
	<rect x="31.999" y="264.37" style="fill:#1D1D1B;" width="16" height="15.269"/>
</g>
<rect x="192.002" y="143.996" style="fill:#FFFFFF;" width="16" height="15.999"/>
<rect x="359.996" y="80.36" style="fill:#1D1D1B;" width="15.999" height="15.269"/>
<rect x="256.003" y="216" style="fill:#FFFFFF;" width="15.999" height="15.999"/>
<g>
	<rect x="359.996" y="256.367" style="fill:#1D1D1B;" width="15.999" height="15.269"/>
	<rect x="448.005" y="224.367" style="fill:#1D1D1B;" width="16" height="15.269"/>
	<rect x="448.005" y="320.368" style="fill:#1D1D1B;" width="16" height="15.269"/>
</g>
<g>
	<rect x="263.995" y="295.995" style="fill:#FFFFFF;" width="15.999" height="15.999"/>
	<rect x="168.004" y="327.995" style="fill:#FFFFFF;" width="16" height="15.999"/>
	<rect x="248" y="399.999" style="fill:#FFFFFF;" width="16" height="15.999"/>
</g>
<rect x="303.998" y="448.369" style="fill:#1D1D1B;" width="15.999" height="15.269"/>
<g>
	<rect x="104.004" y="376.001" style="fill:#FFFFFF;" width="16" height="15.999"/>
	<rect x="128.001" y="87.998" style="fill:#FFFFFF;" width="16" height="15.999"/>
	<rect x="207.997" y="40.003" style="fill:#FFFFFF;" width="15.999" height="15.999"/>
</g>

<g>
    <text x="-10" y="400" font-size="400px" font-family="Arial" font-weight="bold" stroke="#ffffff" stroke-width="20">AE</text>
</g>

</g>
    </g>
    <!-- -->
    
    <g class="section" id="sun">
<path style="fill:#000000;" d="M255.985,512c-2.488,0-5.01-0.634-7.321-1.967c-7.017-4.051-9.421-13.023-5.369-20.04l50.339-87.19
	c3.32-5.751,10.09-8.551,16.501-6.835l117.247,31.417l-31.415-117.247c-2.098-7.827,2.547-15.871,10.374-17.968
	c7.822-2.099,15.869,2.548,17.967,10.374L462.3,444.334c1.357,5.063-0.091,10.464-3.797,14.172
	c-3.706,3.706-9.105,5.155-14.17,3.797l-130.918-35.079l-44.71,77.44C265.988,509.368,261.055,512,255.985,512z M63.872,462.802
	c-3.841,0-7.588-1.51-10.375-4.297c-3.706-3.706-5.154-9.107-3.797-14.172l35.079-130.917l-77.44-44.711
	c-7.017-4.051-9.421-13.023-5.369-20.04s13.022-9.42,20.04-5.369l87.19,50.339c5.751,3.32,8.554,10.087,6.835,16.503L84.619,427.385
	l117.247-31.417c7.822-2.098,15.869,2.547,17.967,10.374c2.098,7.827-2.547,15.871-10.374,17.968L67.669,462.302
	C66.411,462.638,65.136,462.802,63.872,462.802z M497.313,270.673c-2.488,0-5.01-0.634-7.321-1.967l-87.191-50.339
	c-5.751-3.32-8.554-10.087-6.835-16.503l31.415-117.247l-117.247,31.417c-7.821,2.098-15.869-2.547-17.967-10.374
	c-2.098-7.827,2.547-15.871,10.374-17.968l141.791-37.992c5.067-1.358,10.464,0.092,14.17,3.797
	c3.706,3.706,5.154,9.107,3.797,14.172L427.22,198.585l77.441,44.711c7.017,4.051,9.421,13.023,5.369,20.04
	C507.316,268.042,502.383,270.673,497.313,270.673z M101.855,220.335c-6.479,0-12.405-4.322-14.161-10.877L49.702,67.668
	c-1.357-5.063,0.091-10.464,3.797-14.172c3.706-3.706,9.105-5.155,14.17-3.797l130.918,35.079l44.71-77.44
	c4.049-7.015,13.02-9.423,20.04-5.369c7.017,4.051,9.421,13.023,5.369,20.04l-50.339,87.19c-3.32,5.751-10.089,8.554-16.501,6.835
	L84.619,84.617l31.415,117.247c2.098,7.827-2.547,15.871-10.374,17.968C104.389,220.172,103.111,220.335,101.855,220.335z"/>
<circle style="fill:#D1D1C1;" cx="256.001" cy="256.001" r="110.205"/>
<path style="fill:#000000;" d="M256,380.882c-68.861,0-124.881-56.022-124.881-124.881S187.141,131.119,256,131.119
	s124.881,56.022,124.881,124.881S324.859,380.882,256,380.882z M256,160.46c-52.68,0-95.54,42.858-95.54,95.54
	s42.86,95.54,95.54,95.54s95.54-42.858,95.54-95.54S308.68,160.46,256,160.46z"/>
    </g>

    <!-- -->
    
    <g class="section" id="noname">
</g>

    <!-- -->
    
    <g class="section" id="noname">
</g>
    
    </svg>
